<mxfile host="app.diagrams.net" agent="Mozilla/5.0 (Windows NT 10.0; Win64; x64) AppleWebKit/537.36 (KHTML, like Gecko) Chrome/138.0.0.0 Safari/537.36 Edg/138.0.0.0" version="28.0.7">
  <diagram name="Page-1" id="XZWQy1RHiS30S08-ZTA9">
    <mxGraphModel dx="848" dy="1583" grid="1" gridSize="10" guides="1" tooltips="1" connect="1" arrows="1" fold="1" page="1" pageScale="1" pageWidth="850" pageHeight="1100" math="0" shadow="0">
      <root>
        <mxCell id="0" />
        <mxCell id="1" parent="0" />
        <mxCell id="r7QNiKS6ty83QbMzJMHu-1" value="plan" style="ellipse;whiteSpace=wrap;html=1;strokeColor=#000000;fillColor=#D5E8D4;" parent="1" vertex="1">
          <mxGeometry x="360" y="-60" width="120" height="80" as="geometry" />
        </mxCell>
        <mxCell id="_yELWWnJfOBbJCHHO0Q6-4" style="edgeStyle=orthogonalEdgeStyle;rounded=0;orthogonalLoop=1;jettySize=auto;html=1;" parent="1" source="r7QNiKS6ty83QbMzJMHu-2" edge="1">
          <mxGeometry relative="1" as="geometry">
            <mxPoint x="420" y="60" as="targetPoint" />
          </mxGeometry>
        </mxCell>
        <mxCell id="r7QNiKS6ty83QbMzJMHu-2" value="Develop" style="ellipse;whiteSpace=wrap;html=1;fillColor=#D5E8D4;strokeColor=#000000;" parent="1" vertex="1">
          <mxGeometry x="360" y="60" width="120" height="80" as="geometry" />
        </mxCell>
        <mxCell id="r7QNiKS6ty83QbMzJMHu-3" value="Build" style="ellipse;whiteSpace=wrap;html=1;fillColor=#D5E8D4;strokeColor=#000000;" parent="1" vertex="1">
          <mxGeometry x="360" y="180" width="120" height="80" as="geometry" />
        </mxCell>
        <mxCell id="r7QNiKS6ty83QbMzJMHu-4" value="Test" style="ellipse;whiteSpace=wrap;html=1;fillColor=#D5E8D4;strokeColor=#000000;" parent="1" vertex="1">
          <mxGeometry x="360" y="300" width="120" height="80" as="geometry" />
        </mxCell>
        <mxCell id="r7QNiKS6ty83QbMzJMHu-5" value="Release" style="ellipse;whiteSpace=wrap;html=1;fillColor=#D5E8D4;strokeColor=#000000;" parent="1" vertex="1">
          <mxGeometry x="360" y="420" width="120" height="80" as="geometry" />
        </mxCell>
        <mxCell id="r7QNiKS6ty83QbMzJMHu-6" value="Deploy" style="ellipse;whiteSpace=wrap;html=1;fillColor=#D5E8D4;strokeColor=#000000;" parent="1" vertex="1">
          <mxGeometry x="360" y="540" width="120" height="80" as="geometry" />
        </mxCell>
        <mxCell id="r7QNiKS6ty83QbMzJMHu-7" value="operate" style="ellipse;whiteSpace=wrap;html=1;fillColor=#D5E8D4;strokeColor=#000000;" parent="1" vertex="1">
          <mxGeometry x="360" y="660" width="120" height="80" as="geometry" />
        </mxCell>
        <mxCell id="_yELWWnJfOBbJCHHO0Q6-1" value="Monitor" style="ellipse;whiteSpace=wrap;html=1;fillColor=#D5E8D4;strokeColor=#000000;" parent="1" vertex="1">
          <mxGeometry x="360" y="780" width="120" height="80" as="geometry" />
        </mxCell>
        <mxCell id="_yELWWnJfOBbJCHHO0Q6-3" value="" style="endArrow=classic;html=1;rounded=0;exitX=0.5;exitY=1;exitDx=0;exitDy=0;entryX=0.5;entryY=0;entryDx=0;entryDy=0;" parent="1" source="r7QNiKS6ty83QbMzJMHu-1" target="r7QNiKS6ty83QbMzJMHu-2" edge="1">
          <mxGeometry width="50" height="50" relative="1" as="geometry">
            <mxPoint x="430" y="200" as="sourcePoint" />
            <mxPoint x="420" y="50" as="targetPoint" />
          </mxGeometry>
        </mxCell>
        <mxCell id="_yELWWnJfOBbJCHHO0Q6-5" value="" style="endArrow=classic;html=1;rounded=0;entryX=0.5;entryY=0;entryDx=0;entryDy=0;exitX=0.5;exitY=1;exitDx=0;exitDy=0;" parent="1" source="r7QNiKS6ty83QbMzJMHu-2" target="r7QNiKS6ty83QbMzJMHu-3" edge="1">
          <mxGeometry width="50" height="50" relative="1" as="geometry">
            <mxPoint x="430" y="340" as="sourcePoint" />
            <mxPoint x="480" y="290" as="targetPoint" />
          </mxGeometry>
        </mxCell>
        <mxCell id="_yELWWnJfOBbJCHHO0Q6-6" value="" style="endArrow=classic;html=1;rounded=0;entryX=0.5;entryY=0;entryDx=0;entryDy=0;exitX=0.5;exitY=1;exitDx=0;exitDy=0;" parent="1" source="r7QNiKS6ty83QbMzJMHu-3" target="r7QNiKS6ty83QbMzJMHu-4" edge="1">
          <mxGeometry width="50" height="50" relative="1" as="geometry">
            <mxPoint x="430" y="400" as="sourcePoint" />
            <mxPoint x="480" y="350" as="targetPoint" />
          </mxGeometry>
        </mxCell>
        <mxCell id="_yELWWnJfOBbJCHHO0Q6-7" value="" style="endArrow=classic;html=1;rounded=0;entryX=0.5;entryY=0;entryDx=0;entryDy=0;exitX=0.5;exitY=1;exitDx=0;exitDy=0;" parent="1" source="r7QNiKS6ty83QbMzJMHu-4" target="r7QNiKS6ty83QbMzJMHu-5" edge="1">
          <mxGeometry width="50" height="50" relative="1" as="geometry">
            <mxPoint x="430" y="520" as="sourcePoint" />
            <mxPoint x="480" y="470" as="targetPoint" />
          </mxGeometry>
        </mxCell>
        <mxCell id="_yELWWnJfOBbJCHHO0Q6-8" value="" style="endArrow=classic;html=1;rounded=0;entryX=0.5;entryY=0;entryDx=0;entryDy=0;exitX=0.5;exitY=1;exitDx=0;exitDy=0;" parent="1" source="r7QNiKS6ty83QbMzJMHu-5" target="r7QNiKS6ty83QbMzJMHu-6" edge="1">
          <mxGeometry width="50" height="50" relative="1" as="geometry">
            <mxPoint x="430" y="640" as="sourcePoint" />
            <mxPoint x="480" y="590" as="targetPoint" />
          </mxGeometry>
        </mxCell>
        <mxCell id="_yELWWnJfOBbJCHHO0Q6-9" value="" style="endArrow=classic;html=1;rounded=0;entryX=0.5;entryY=0;entryDx=0;entryDy=0;exitX=0.5;exitY=1;exitDx=0;exitDy=0;" parent="1" source="r7QNiKS6ty83QbMzJMHu-6" target="r7QNiKS6ty83QbMzJMHu-7" edge="1">
          <mxGeometry width="50" height="50" relative="1" as="geometry">
            <mxPoint x="430" y="750" as="sourcePoint" />
            <mxPoint x="480" y="700" as="targetPoint" />
          </mxGeometry>
        </mxCell>
        <mxCell id="_yELWWnJfOBbJCHHO0Q6-10" value="" style="endArrow=classic;html=1;rounded=0;entryX=0.5;entryY=0;entryDx=0;entryDy=0;exitX=0.5;exitY=1;exitDx=0;exitDy=0;" parent="1" source="r7QNiKS6ty83QbMzJMHu-7" target="_yELWWnJfOBbJCHHO0Q6-1" edge="1">
          <mxGeometry width="50" height="50" relative="1" as="geometry">
            <mxPoint x="430" y="780" as="sourcePoint" />
            <mxPoint x="480" y="730" as="targetPoint" />
          </mxGeometry>
        </mxCell>
      </root>
    </mxGraphModel>
  </diagram>
</mxfile>
